<?xml version="1.0" encoding="utf-8"?>
<!-- Generator: Adobe Illustrator 19.0.0, SVG Export Plug-In . SVG Version: 6.00 Build 0)  -->
<svg version="1.1" id="Capa_1" xmlns="http://www.w3.org/2000/svg" xmlns:xlink="http://www.w3.org/1999/xlink" x="0px" y="0px"
	 viewBox="-265 357 80 80" style="enable-background:new -265 357 80 80;" xml:space="preserve">
<style type="text/css">
	.st0{fill:url(#SVGID_1_);}
	.st1{fill:url(#SVGID_2_);}
</style>
<g>
	<linearGradient id="SVGID_1_" gradientUnits="userSpaceOnUse" x1="-264.6667" y1="397" x2="-185.3333" y2="397">
		<stop  offset="0" style="stop-color:#481480"/>
		<stop  offset="1" style="stop-color:#C7187C"/>
	</linearGradient>
	<path class="st0" d="M-199.8,395.1c0-1.6,1.3-3,2.9-3c1.6,0,2.9,1.3,2.9,3v26.6c5.4-6.8,8.6-15.4,8.6-24.7
		c0-21.9-17.8-39.7-39.7-39.7c-11.2,0-21.4,4.7-28.6,12.2c1.4,0.5,2.4,2,2.4,3.7l0.6,16.7c5.4-4.3,7.8-5.8,14.9-5.8
		c12.2,0,22.1,9.4,22.1,22.4c0,13-9.9,23.6-22.1,23.6c-11.5,0-21.5-9.3-22.6-21.3c-0.1-0.3-0.1-0.6-0.1-1v-32.3
		c-4,6.2-6.3,13.6-6.3,21.5c0,21.9,17.8,39.7,39.7,39.7c9.5,0,18.3-3.4,25.2-9V395.1z M-196.4,381.1c1.9,0,3.5,1.6,3.5,3.6
		c0,2-1.5,3.6-3.5,3.6c-1.9,0-3.5-1.6-3.5-3.6C-199.8,382.7-198.3,381.1-196.4,381.1z M-204.3,423.6c0,1.6-1.3,3-2.9,3
		c-1.6,0-2.9-1.3-2.9-3v-28.5c0-1.6,1.3-3,2.9-3c1.6,0,2.9,1.3,2.9,3V423.6z M-206.7,388.2c-1.9,0-3.5-1.6-3.5-3.6
		c0-2,1.5-3.6,3.5-3.6c1.9,0,3.5,1.6,3.5,3.6C-203.2,386.6-204.8,388.2-206.7,388.2z"/>
	<linearGradient id="SVGID_2_" gradientUnits="userSpaceOnUse" x1="-250.7075" y1="407.4315" x2="-219.9075" y2="407.4315">
		<stop  offset="0" style="stop-color:#481480"/>
		<stop  offset="1" style="stop-color:#C7187C"/>
	</linearGradient>
	<ellipse class="st1" cx="-235.3" cy="407.4" rx="15.4" ry="15.6"/>
</g>
</svg>
